<?xml version="1.0" encoding="UTF-8" standalone="no"?>
<!-- Created with Inkscape (http://www.inkscape.org/) -->

<svg
   width="3692"
   height="511.99997"
   viewBox="0 0 3692 511.99999"
   version="1.1"
   id="svg5"
   xml:space="preserve"
   xmlns:xlink="http://www.w3.org/1999/xlink"
   xmlns="http://www.w3.org/2000/svg"
   xmlns:svg="http://www.w3.org/2000/svg"
   xmlns:rdf="http://www.w3.org/1999/02/22-rdf-syntax-ns#"
   xmlns:cc="http://creativecommons.org/ns#"
   xmlns:dc="http://purl.org/dc/elements/1.1/"><title
     id="title21947">Tepertopier Presseschau Full Logo</title><defs
     id="defs2"><marker
       markerWidth="1.05"
       markerHeight="1.9999999"
       refX="0"
       refY="0"
       orient="auto-start-reverse"
       id="Cap4"
       viewBox="0 0 1.05 2"
       style="overflow:visible"
       preserveAspectRatio="xMidYMid"><path
         id="path104971"
         style="fill:context-stroke;stroke-linecap:butt"
         d="M 0,-1 H 0.585 C 1.33,-1 1.7,-1.6 2,-2 V 2 C 1.7,1.6 1.33,1 0.585,1 H 0 L -0.1,0 Z"
         transform="scale(0.5)" /></marker><linearGradient
       id="linearGradient7871"><stop
         style="stop-color:#2525c5;stop-opacity:1;"
         offset="0"
         id="stop7867" /><stop
         style="stop-color:#000072;stop-opacity:1;"
         offset="1"
         id="stop7869" /></linearGradient><radialGradient
       xlink:href="#linearGradient7871"
       id="radialGradient7873-2"
       cx="407.48016"
       cy="104.60635"
       fx="407.48016"
       fy="104.60635"
       r="256"
       gradientUnits="userSpaceOnUse"
       gradientTransform="matrix(2.4112944,9.2220271e-6,-9.3161503e-6,2.4359049,-534.55366,-190.81488)" /></defs><metadata
     id="metadata21945"><rdf:RDF><cc:Work
         rdf:about=""><dc:title>Tepertopier Presseschau Full Logo</dc:title><dc:date>2023-09-24</dc:date><dc:creator><cc:Agent><dc:title>anjo / Tepertopia</dc:title></cc:Agent></dc:creator><dc:description>Full logo of the Tepertopier Presseschau / Tepertopian Press Reel, the leading Tepertopian news aggregator.</dc:description></cc:Work></rdf:RDF></metadata><rect
     style="fill:#daa520;fill-opacity:1;stroke:none;stroke-width:17.516;stroke-dasharray:none;stroke-opacity:1"
     id="rect6410"
     width="3692"
     height="512"
     x="0"
     y="0"
     rx="76.70285"
     ry="64" /><g
     id="logo"><rect
       style="fill:url(#radialGradient7873-2);fill-opacity:1;stroke:none;stroke-width:16;stroke-linecap:butt;stroke-dasharray:none;stroke-opacity:1"
       id="bg"
       width="512"
       height="512"
       x="0"
       y="0"
       rx="64"
       ry="64" /><g
       id="icon"><path
         d="m 354.05196,436.66508 c -1.44036,0 -2.43697,-1.1786 -2.21455,-2.61897 l 10.91921,-70.71114 h 60.23528 l -10.91921,70.71114 c -0.14154,0.91662 -0.15198,1.83323 -0.0115,2.61897 z m 76.79684,-73.33011 1.21324,-7.85671 h -75.94889 l -12.13245,78.56785 c -0.88972,5.76168 3.09635,10.47564 8.85803,10.47564 h 68.09217 c 5.76168,0 11.20357,-4.71396 12.09329,-10.47564 l 10.91921,-70.71114 z"
         id="symbol"
         style="fill:#daa520;fill-opacity:1;stroke:#daa520;stroke-width:6.9565;stroke-dasharray:none;stroke-opacity:1" /><path
         d="m 224,64 c -6.11669,0 -27.68613,0.228253 -38.95372,0.228253 H 109.07043 C 97.802817,64.228253 76.877269,64 70.760564,64 L 64,101.88872 c 6.116705,0 27.364187,-0.22823 38.63179,-0.22823 h 7.08249 l -16.418513,94.95006 c -1.28771,7.98859 -4.1851,23.05278 -4.828971,27.38945 h 62.454734 c 0.64386,-4.33667 2.89738,-19.40086 4.18512,-27.38945 l 16.41849,-94.95006 h 7.08251 c 11.2676,0 32.51509,0.22823 38.63178,0.22823 z"
         id="letter-t"
         style="font-style:italic;font-weight:bold;font-size:144px;font-family:Semplicità;-inkscape-font-specification:'Semplicità Bold Italic';fill:#daa520;stroke:none;stroke-width:18.8244" /><path
         d="m 376.25719,171.42857 c 51.16753,0 71.74281,-28.8 71.74281,-61.94286 C 448,83.199994 429.59052,64 393.85447,64 h -82.5719 l -19.22166,132.57142 c -1.08292,8 -3.51946,23.08571 -4.06091,27.42858 h 52.52115 c 0.54145,-4.34287 2.16582,-19.42858 3.51946,-27.42858 l 3.79018,-25.14285 z m -23.55331,-33.37143 5.68529,-40.228555 h 17.86802 c 13.8071,0 20.84603,7.085715 20.84603,16.914275 0,13.25715 -10.01694,23.31428 -26.53132,23.31428 z"
         id="letter-p"
         style="font-style:italic;font-weight:bold;font-size:144px;font-family:Semplicità;-inkscape-font-specification:'Semplicità Bold Italic';fill:#daa520;stroke:none;stroke-width:17.2748" /><path
         d="M 87.441231,288 68.088593,420.57141 C 66.998306,428.57143 64.545144,443.65713 64,448 h 52.87904 c 0.54516,-4.34287 2.45315,-19.42857 3.54344,-27.42859 l 4.63374,-31.99999 h 12.26576 l 12.53833,39.08572 c 2.18057,6.85714 4.36116,13.25713 6.54173,20.34286 h 54.78706 c 0,0 -5.17888,-15.31427 -8.44976,-24.91429 L 188.83815,383.31427 C 209.28109,375.54284 224,358.17143 224,332.8 224,306.28572 203.28449,288 169.48552,288 Z m 47.427579,35.19999 h 17.44464 c 10.90291,0 17.98979,6.85717 17.98979,15.54287 0,10.51428 -10.9029,19.2 -24.25894,19.2 h -16.35436 z"
         id="letter-r"
         style="font-style:italic;font-weight:bold;font-size:144px;font-family:Semplicità;-inkscape-font-specification:'Semplicità Bold Italic';fill:#daa520;stroke:none;stroke-width:17.3336" /></g></g><g
     aria-label="TEPERTOPIER PRESSESCHAU"
     id="text3214"
     style="font-style:italic;font-weight:bold;font-size:144px;font-family:Semplicità;-inkscape-font-specification:'Semplicità Bold Italic';fill:#ffffff;fill-opacity:1;stroke-width:10"
     transform="matrix(1.4934289,0,0,1.4934289,-268.17377,-237.68699)"><path
       d="m 636.82676,355.31201 c -2.736,0 -12.384,0.144 -17.424,0.144 h -33.984 c -5.04,0 -14.4,-0.144 -17.136,-0.144 l -3.024,23.904 c 2.736,0 12.24,-0.144 17.28,-0.144 h 3.168 l -7.344,59.904 c -0.576,5.04 -1.872,14.544 -2.16,17.28 h 27.936 c 0.288,-2.736 1.296,-12.24 1.872,-17.28 l 7.344,-59.904 h 3.168 c 5.04,0 14.544,0.144 17.28,0.144 z"
       id="path3270"
       style="fill:#ffffff;fill-opacity:1" /><path
       d="m 639.56266,456.25601 h 39.6 c 5.04,0 14.4,0.144 17.136,0.144 l 3.024,-23.904 c -2.736,0 -12.24,0.144 -17.28,0.144 h -14.112 l 1.728,-14.976 h 6.336 c 5.04,0 14.544,0.144 17.28,0.144 l 3.024,-23.904 c -2.736,0 -12.24,0.144 -17.28,0.144 h -6.336 l 1.728,-14.976 h 11.808 c 5.04,0 14.544,0.144 17.28,0.144 l 3.024,-23.904 c -2.736,0 -12.384,0.144 -17.424,0.144 h -37.296 z"
       id="path3272"
       style="fill:#ffffff;fill-opacity:1" /><path
       d="m 756.3466,423.13601 c 27.216,0 38.16,-18.144 38.16,-39.024 0,-16.56 -9.792,-28.656 -28.8,-28.656 h -43.92 l -10.224,83.52 c -0.576,5.04 -1.872,14.544 -2.16,17.28 h 27.936 c 0.288,-2.736 1.152,-12.24 1.872,-17.28 l 2.016,-15.84 z m -12.528,-21.024 3.024,-25.344 h 9.504 c 7.344,0 11.088,4.464 11.088,10.656 0,8.352 -5.328,14.688 -14.112,14.688 z"
       id="path3274"
       style="fill:#ffffff;fill-opacity:1" /><path
       d="m 802.71485,456.25601 h 39.6 c 5.04,0 14.4,0.144 17.136,0.144 l 3.024,-23.904 c -2.736,0 -12.24,0.144 -17.28,0.144 h -14.112 l 1.728,-14.976 h 6.336 c 5.04,0 14.544,0.144 17.28,0.144 l 3.024,-23.904 c -2.736,0 -12.24,0.144 -17.28,0.144 h -6.336 l 1.728,-14.976 h 11.808 c 5.04,0 14.544,0.144 17.28,0.144 l 3.024,-23.904 c -2.736,0 -12.384,0.144 -17.424,0.144 h -37.296 z"
       id="path3276"
       style="fill:#ffffff;fill-opacity:1" /><path
       d="m 889.5468,355.45601 -10.224,83.52 c -0.576,5.04 -1.872,14.544 -2.16,17.28 h 27.936 c 0.288,-2.736 1.296,-12.24 1.872,-17.28 l 2.448,-20.16 h 6.48 l 6.624,24.624 c 1.152,4.32 2.304,8.352 3.456,12.816 h 28.944 c 0,0 -2.736,-9.648 -4.464,-15.696 l -7.344,-25.056 c 10.8,-4.896 18.576,-15.84 18.576,-31.824 0,-16.704 -10.944,-28.224 -28.8,-28.224 z m 25.056,22.176 h 9.216 c 5.76,0 9.504,4.32 9.504,9.792 0,6.624 -5.76,12.096 -12.816,12.096 h -8.64 z"
       id="path3278"
       style="fill:#ffffff;fill-opacity:1" /><path
       d="m 1043.6269,355.31201 c -2.736,0 -12.384,0.144 -17.424,0.144 h -33.98403 c -5.04,0 -14.4,-0.144 -17.136,-0.144 l -3.024,23.904 c 2.736,0 12.24,-0.144 17.28,-0.144 h 3.168 l -7.344,59.904 c -0.576,5.04 -1.872,14.544 -2.16,17.28 h 27.93603 c 0.288,-2.736 1.296,-12.24 1.872,-17.28 l 7.344,-59.904 h 3.168 c 5.04,0 14.544,0.144 17.28,0.144 z"
       id="path3280"
       style="fill:#ffffff;fill-opacity:1" /><path
       d="m 1109.7227,352.57601 c -33.696,0 -62.64,27.504 -62.64,59.76 0,26.352 20.304,46.8 49.536,46.8 33.84,0 62.496,-27.648 62.496,-59.904 0,-26.208 -20.304,-46.656 -49.392,-46.656 z m -3.168,25.632 c 14.4,0 24.624,10.656 24.624,24.192 0,16.848 -14.688,31.104 -31.392,31.104 -14.4,0 -24.912,-10.512 -24.912,-24.192 0,-16.848 14.976,-31.104 31.68,-31.104 z"
       id="path3282"
       style="fill:#ffffff;fill-opacity:1" /><path
       d="m 1212.8266,423.13601 c 27.216,0 38.16,-18.144 38.16,-39.024 0,-16.56 -9.792,-28.656 -28.8,-28.656 h -43.92 l -10.224,83.52 c -0.576,5.04 -1.872,14.544 -2.16,17.28 h 27.936 c 0.288,-2.736 1.152,-12.24 1.872,-17.28 l 2.016,-15.84 z m -12.528,-21.024 3.024,-25.344 h 9.504 c 7.344,0 11.088,4.464 11.088,10.656 0,8.352 -5.328,14.688 -14.112,14.688 z"
       id="path3284"
       style="fill:#ffffff;fill-opacity:1" /><path
       d="m 1271.7227,355.45601 c -0.288,2.736 -1.296,12.24 -1.872,17.28 l -8.208,66.24 c -0.576,5.04 -1.872,14.544 -2.16,17.28 h 27.936 c 0.288,-2.736 1.296,-12.24 1.872,-17.28 l 8.208,-66.24 c 0.576,-5.04 1.872,-14.544 2.16,-17.28 z"
       id="path3286"
       style="fill:#ffffff;fill-opacity:1" /><path
       d="m 1309.5946,456.25601 h 39.6 c 5.04,0 14.4,0.144 17.136,0.144 l 3.024,-23.904 c -2.736,0 -12.24,0.144 -17.28,0.144 h -14.112 l 1.728,-14.976 h 6.336 c 5.04,0 14.544,0.144 17.28,0.144 l 3.024,-23.904 c -2.736,0 -12.24,0.144 -17.28,0.144 h -6.336 l 1.728,-14.976 h 11.808 c 5.04,0 14.544,0.144 17.28,0.144 l 3.024,-23.904 c -2.736,0 -12.384,0.144 -17.424,0.144 h -37.296 z"
       id="path3288"
       style="fill:#ffffff;fill-opacity:1" /><path
       d="m 1396.4266,355.45601 -10.224,83.52 c -0.576,5.04 -1.872,14.544 -2.16,17.28 h 27.936 c 0.288,-2.736 1.296,-12.24 1.872,-17.28 l 2.448,-20.16 h 6.48 l 6.624,24.624 c 1.152,4.32 2.304,8.352 3.456,12.816 h 28.944 c 0,0 -2.736,-9.648 -4.464,-15.696 l -7.344,-25.056 c 10.8,-4.896 18.576,-15.84 18.576,-31.824 0,-16.704 -10.944,-28.224 -28.8,-28.224 z m 25.056,22.176 h 9.216 c 5.76,0 9.504,4.32 9.504,9.792 0,6.624 -5.76,12.096 -12.816,12.096 h -8.64 z"
       id="path3290"
       style="fill:#ffffff;fill-opacity:1" /><path
       d="m 1575.8506,423.13601 c 27.216,0 38.16,-18.144 38.16,-39.024 0,-16.56 -9.792,-28.656 -28.8,-28.656 h -43.92 l -10.224,83.52 c -0.576,5.04 -1.872,14.544 -2.16,17.28 h 27.936 c 0.288,-2.736 1.152,-12.24 1.872,-17.28 l 2.016,-15.84 z m -12.528,-21.024 3.024,-25.344 h 9.504 c 7.344,0 11.088,4.464 11.088,10.656 0,8.352 -5.328,14.688 -14.112,14.688 z"
       id="path3292"
       style="fill:#ffffff;fill-opacity:1" /><path
       d="m 1635.1787,355.45601 -10.224,83.52 c -0.576,5.04 -1.872,14.544 -2.16,17.28 h 27.936 c 0.288,-2.736 1.296,-12.24 1.872,-17.28 l 2.448,-20.16 h 6.48 l 6.624,24.624 c 1.152,4.32 2.304,8.352 3.456,12.816 h 28.944 c 0,0 -2.736,-9.648 -4.464,-15.696 l -7.344,-25.056 c 10.8,-4.896 18.576,-15.84 18.576,-31.824 0,-16.704 -10.944,-28.224 -28.8,-28.224 z m 25.056,22.176 h 9.216 c 5.76,0 9.504,4.32 9.504,9.792 0,6.624 -5.76,12.096 -12.816,12.096 h -8.64 z"
       id="path3294"
       style="fill:#ffffff;fill-opacity:1" /><path
       d="m 1714.8108,456.25601 h 39.6 c 5.04,0 14.4,0.144 17.136,0.144 l 3.024,-23.904 c -2.736,0 -12.24,0.144 -17.28,0.144 h -14.112 l 1.728,-14.976 h 6.336 c 5.04,0 14.544,0.144 17.28,0.144 l 3.024,-23.904 c -2.736,0 -12.24,0.144 -17.28,0.144 h -6.336 l 1.728,-14.976 h 11.808 c 5.04,0 14.544,0.144 17.28,0.144 l 3.024,-23.904 c -2.736,0 -12.384,0.144 -17.424,0.144 h -37.296 z"
       id="path3296"
       style="fill:#ffffff;fill-opacity:1" /><path
       d="m 1865.2907,368.84801 c -4.752,-6.336 -14.4,-16.272 -30.816,-16.272 -19.008,0 -35.712,15.696 -35.712,32.688 0,24.48 34.992,31.248 34.992,44.208 0,4.752 -4.32,8.64 -10.224,8.64 -7.92,0 -13.392,-5.616 -16.272,-12.816 l -22.464,12.24 c 5.904,12.384 17.856,21.6 35.856,21.6 22.176,0 40.032,-14.256 40.032,-34.848 0,-14.4 -10.512,-21.6 -21.456,-29.808 -5.904,-4.32 -13.968,-8.352 -13.968,-14.688 0,-3.312 2.736,-6.48 7.2,-6.48 6.768,0 11.376,4.896 14.832,10.512 z"
       id="path3298"
       style="fill:#ffffff;fill-opacity:1" /><path
       d="m 1948.3787,368.84801 c -4.752,-6.336 -14.4,-16.272 -30.816,-16.272 -19.008,0 -35.712,15.696 -35.712,32.688 0,24.48 34.992,31.248 34.992,44.208 0,4.752 -4.32,8.64 -10.224,8.64 -7.92,0 -13.392,-5.616 -16.272,-12.816 l -22.464,12.24 c 5.904,12.384 17.856,21.6 35.856,21.6 22.176,0 40.032,-14.256 40.032,-34.848 0,-14.4 -10.512,-21.6 -21.456,-29.808 -5.904,-4.32 -13.968,-8.352 -13.968,-14.688 0,-3.312 2.736,-6.48 7.2,-6.48 6.768,0 11.376,4.896 14.832,10.512 z"
       id="path3300"
       style="fill:#ffffff;fill-opacity:1" /><path
       d="m 1955.5787,456.25601 h 39.6 c 5.04,0 14.4,0.144 17.136,0.144 l 3.024,-23.904 c -2.736,0 -12.24,0.144 -17.28,0.144 h -14.112 l 1.728,-14.976 h 6.336 c 5.04,0 14.544,0.144 17.28,0.144 l 3.024,-23.904 c -2.736,0 -12.24,0.144 -17.28,0.144 h -6.336 l 1.728,-14.976 h 11.808 c 5.04,0 14.544,0.144 17.28,0.144 l 3.024,-23.904 c -2.736,0 -12.384,0.144 -17.424,0.144 h -37.296 z"
       id="path3302"
       style="fill:#ffffff;fill-opacity:1" /><path
       d="m 2106.0586,368.84801 c -4.752,-6.336 -14.4,-16.272 -30.816,-16.272 -19.008,0 -35.712,15.696 -35.712,32.688 0,24.48 34.992,31.248 34.992,44.208 0,4.752 -4.32,8.64 -10.224,8.64 -7.92,0 -13.392,-5.616 -16.272,-12.816 l -22.464,12.24 c 5.904,12.384 17.856,21.6 35.856,21.6 22.176,0 40.032,-14.256 40.032,-34.848 0,-14.4 -10.512,-21.6 -21.456,-29.808 -5.904,-4.32 -13.968,-8.352 -13.968,-14.688 0,-3.312 2.736,-6.48 7.2,-6.48 6.768,0 11.376,4.896 14.832,10.512 z"
       id="path3304"
       style="fill:#ffffff;fill-opacity:1" /><path
       d="m 2194.1865,423.71201 c -7.632,6.48 -14.832,11.232 -26.64,11.232 -13.392,0 -24.336,-9.648 -24.336,-25.2 0,-21.168 15.264,-33.552 31.248,-33.552 9.072,0 16.128,3.456 22.32,10.512 l 19.44,-17.856 c -8.352,-9.792 -20.16,-16.272 -38.88,-16.272 -36.144,0 -61.92,27.072 -61.92,60.192 0,26.064 17.568,46.368 49.104,46.368 16.992,0 33.696,-6.192 45.216,-16.848 z"
       id="path3306"
       style="fill:#ffffff;fill-opacity:1" /><path
       d="m 2325.9465,372.73601 c 0.576,-5.04 1.872,-14.544 2.16,-17.28 h -27.936 c -0.288,2.736 -1.296,12.24 -1.872,17.28 l -2.736,21.6 h -37.152 l 2.736,-21.6 c 0.576,-5.04 1.872,-14.544 2.16,-17.28 h -27.936 c -0.288,2.736 -1.296,12.24 -1.872,17.28 l -8.208,66.24 c -0.576,5.04 -1.872,14.544 -2.16,17.28 h 27.936 c 0.288,-2.736 1.296,-12.24 1.872,-17.28 l 2.88,-23.04 h 37.152 l -2.88,23.04 c -0.576,5.04 -1.872,14.544 -2.16,17.28 h 27.936 c 0.288,-2.736 1.296,-12.24 1.872,-17.28 z"
       id="path3308"
       style="fill:#ffffff;fill-opacity:1" /><path
       d="m 2393.4825,352.00001 -54.576,88.56 c -2.736,4.464 -8.352,13.248 -9.792,15.696 h 29.52 c 1.584,-3.168 4.32,-7.776 5.616,-10.08 l 1.152,-2.016 h 36.72 l 0.576,2.016 c 0.72,2.592 2.592,7.056 3.456,10.08 h 28.656 c -1.296,-3.024 -4.464,-11.232 -6.048,-15.696 l -32.4,-88.56 z m -11.952,71.712 c -2.592,0 -4.752,0.432 -5.04,0.72 l -0.288,-0.576 c 0.288,-0.144 1.584,-1.296 2.88,-3.6 l 4.176,-7.344 c 3.456,-6.192 5.04,-10.224 5.184,-10.944 h 0.576 c 0,0.144 0,0.144 0,0.288 0,1.152 0.432,5.04 2.448,10.656 l 2.592,7.344 c 1.008,2.88 1.584,3.456 1.872,3.6 l -0.288,0.576 c -0.432,-0.288 -2.304,-0.72 -5.04,-0.72 z"
       id="path3310"
       style="fill:#ffffff;fill-opacity:1" /><path
       d="m 2479.4504,355.45601 h -27.936 c -0.288,2.736 -1.296,12.24 -1.872,17.28 l -5.904,47.52 c -0.288,2.736 -0.576,5.184 -0.576,7.632 0,21.744 12.96,31.248 42.48,31.248 25.488,0 38.016,-7.92 44.208,-12.096 l 9.216,-74.304 c 0.576,-5.04 1.872,-14.544 2.16,-17.28 h -27.936 c -0.288,2.736 -1.296,12.24 -1.872,17.28 l -7.2,58.752 c -3.168,2.016 -9.072,4.32 -15.696,4.32 -10.8,0 -17.28,-4.32 -17.28,-13.536 0,-0.72 0,-1.296 0.144,-2.016 l 5.904,-47.52 c 0.576,-5.04 1.872,-14.544 2.16,-17.28 z"
       id="path3312"
       style="fill:#ffffff;fill-opacity:1" /></g><g
     aria-label="TEPERTOPIAN PRESS REVIEW"
     id="text3268"
     style="font-style:italic;font-weight:bold;font-size:144px;font-family:Semplicità;-inkscape-font-specification:'Semplicità Bold Italic';fill:#ffffff;fill-opacity:1;stroke-width:10"
     transform="matrix(1.4775414,0,0,1.4775414,-398.22252,326.5015)"><path
       d="m 730.92179,-174.34901 c -2.736,0 -12.384,0.144 -17.424,0.144 h -33.984 c -5.04,0 -14.4,-0.144 -17.136,-0.144 l -3.024,23.904 c 2.736,0 12.24,-0.144 17.28,-0.144 h 3.168 l -7.344,59.903996 c -0.576,5.04 -1.872,14.544 -2.16,17.28 h 27.936 c 0.288,-2.736 1.296,-12.24 1.872,-17.28 l 7.344,-59.903996 h 3.168 c 5.04,0 14.544,0.144 17.28,0.144 z"
       id="path3315"
       style="fill:#ffffff;fill-opacity:1" /><path
       d="m 733.65769,-73.405014 h 39.6 c 5.04,0 14.4,0.144 17.136,0.144 l 3.024,-23.904 c -2.736,0 -12.24,0.144 -17.28,0.144 h -14.112 l 1.728,-14.975996 h 6.336 c 5.04,0 14.544,0.144 17.28,0.144 l 3.024,-23.904 c -2.736,0 -12.24,0.144 -17.28,0.144 h -6.336 l 1.728,-14.976 h 11.808 c 5.04,0 14.544,0.144 17.28,0.144 l 3.024,-23.904 c -2.736,0 -12.384,0.144 -17.424,0.144 h -37.296 z"
       id="path3317"
       style="fill:#ffffff;fill-opacity:1" /><path
       d="m 850.44164,-106.52501 c 27.216,0 38.16,-18.144 38.16,-39.024 0,-16.56 -9.792,-28.656 -28.8,-28.656 h -43.92 l -10.224,83.519996 c -0.576,5.04 -1.872,14.544 -2.16,17.28 h 27.936 c 0.288,-2.736 1.152,-12.24 1.872,-17.28 l 2.016,-15.839996 z m -12.528,-21.024 3.024,-25.344 h 9.504 c 7.344,0 11.088,4.464 11.088,10.656 0,8.352 -5.328,14.688 -14.112,14.688 z"
       id="path3319"
       style="fill:#ffffff;fill-opacity:1" /><path
       d="m 896.80988,-73.405014 h 39.6 c 5.04,0 14.4,0.144 17.136,0.144 l 3.024,-23.904 c -2.736,0 -12.24,0.144 -17.28,0.144 h -14.112 l 1.728,-14.975996 h 6.336 c 5.04,0 14.544,0.144 17.28,0.144 l 3.024,-23.904 c -2.736,0 -12.24,0.144 -17.28,0.144 h -6.336 l 1.728,-14.976 h 11.808 c 5.04,0 14.544,0.144 17.28,0.144 l 3.024,-23.904 c -2.736,0 -12.384,0.144 -17.424,0.144 h -37.296 z"
       id="path3321"
       style="fill:#ffffff;fill-opacity:1" /><path
       d="m 983.64183,-174.20501 -10.224,83.519996 c -0.576,5.04 -1.872,14.544 -2.16,17.28 h 27.936 c 0.288,-2.736 1.29597,-12.24 1.87197,-17.28 l 2.448,-20.159996 h 6.48 l 6.624,24.623996 c 1.152,4.32 2.304,8.352 3.456,12.816 h 28.944 c 0,0 -2.736,-9.648 -4.464,-15.696 l -7.344,-25.055996 c 10.8,-4.896 18.576,-15.84 18.576,-31.824 0,-16.704 -10.944,-28.224 -28.8,-28.224 z m 25.05597,22.176 h 9.216 c 5.76,0 9.504,4.32 9.504,9.792 0,6.624 -5.76,12.096 -12.816,12.096 h -8.64 z"
       id="path3323"
       style="fill:#ffffff;fill-opacity:1" /><path
       d="m 1137.7219,-174.34901 c -2.736,0 -12.384,0.144 -17.424,0.144 h -33.984 c -5.04,0 -14.4,-0.144 -17.136,-0.144 l -3.024,23.904 c 2.736,0 12.24,-0.144 17.28,-0.144 h 3.168 l -7.344,59.903996 c -0.576,5.04 -1.872,14.544 -2.16,17.28 h 27.936 c 0.288,-2.736 1.296,-12.24 1.872,-17.28 l 7.344,-59.903996 h 3.168 c 5.04,0 14.544,0.144 17.28,0.144 z"
       id="path3325"
       style="fill:#ffffff;fill-opacity:1" /><path
       d="m 1203.8177,-177.08501 c -33.696,0 -62.64,27.504 -62.64,59.76 0,26.351996 20.304,46.799996 49.536,46.799996 33.84,0 62.496,-27.648 62.496,-59.903996 0,-26.208 -20.304,-46.656 -49.392,-46.656 z m -3.168,25.632 c 14.4,0 24.624,10.656 24.624,24.192 0,16.848 -14.688,31.103996 -31.392,31.103996 -14.4,0 -24.912,-10.511996 -24.912,-24.191996 0,-16.848 14.976,-31.104 31.68,-31.104 z"
       id="path3327"
       style="fill:#ffffff;fill-opacity:1" /><path
       d="m 1306.9216,-106.52501 c 27.216,0 38.16,-18.144 38.16,-39.024 0,-16.56 -9.792,-28.656 -28.8,-28.656 h -43.92 l -10.224,83.519996 c -0.576,5.04 -1.872,14.544 -2.16,17.28 h 27.936 c 0.288,-2.736 1.152,-12.24 1.872,-17.28 l 2.016,-15.839996 z m -12.528,-21.024 3.024,-25.344 h 9.504 c 7.344,0 11.088,4.464 11.088,10.656 0,8.352 -5.328,14.688 -14.112,14.688 z"
       id="path3329"
       style="fill:#ffffff;fill-opacity:1" /><path
       d="m 1365.8177,-174.20501 c -0.288,2.736 -1.296,12.24 -1.872,17.28 l -8.208,66.239996 c -0.576,5.04 -1.872,14.544 -2.16,17.28 h 27.936 c 0.288,-2.736 1.296,-12.24 1.872,-17.28 l 8.208,-66.239996 c 0.576,-5.04 1.872,-14.544 2.16,-17.28 z"
       id="path3331"
       style="fill:#ffffff;fill-opacity:1" /><path
       d="m 1459.8497,-177.66101 -54.576,88.559996 c -2.736,4.464 -8.352,13.248 -9.792,15.696 h 29.52 c 1.584,-3.168 4.32,-7.776 5.616,-10.08 l 1.152,-2.016 h 36.72 l 0.576,2.016 c 0.72,2.592 2.592,7.056 3.456,10.08 h 28.656 c -1.296,-3.024 -4.464,-11.232 -6.048,-15.696 l -32.4,-88.559996 z m -11.952,71.712 c -2.592,0 -4.752,0.432 -5.04,0.72 l -0.288,-0.576 c 0.288,-0.144 1.584,-1.296 2.88,-3.6 l 4.176,-7.344 c 3.456,-6.192 5.04,-10.224 5.184,-10.944 h 0.576 c 0,0.144 0,0.144 0,0.288 0,1.152 0.432,5.04 2.448,10.656 l 2.592,7.344 c 1.008,2.88 1.584,3.456 1.872,3.6 l -0.288,0.576 c -0.432,-0.288 -2.304,-0.72 -5.04,-0.72 z"
       id="path3333"
       style="fill:#ffffff;fill-opacity:1" /><path
       d="m 1527.2417,-176.79701 -10.656,86.111996 c -0.576,5.04 -1.872,14.544 -2.16,17.28 h 27.936 c 0.288,-2.736 1.152,-12.24 1.872,-17.28 l 3.024,-24.047996 c 0.432,-3.024 0.432,-5.472 0.432,-7.344 0,-1.584 -0.144,-2.592 -0.144,-3.312 l 0.576,-0.144 c 2.448,4.032 2.88,4.752 7.056,8.496 l 50.4,46.223996 h 2.592 l 10.656,-86.111996 c 0.576,-5.04 1.872,-14.544 2.16,-17.28 h -27.936 c -0.288,2.736 -1.296,12.24 -1.872,17.28 l -2.736,22.464 c -0.432,3.024 -0.576,5.616 -0.576,7.488 0,1.44 0.144,2.592 0.144,3.168 l -0.576,0.144 c -2.448,-3.888 -2.736,-4.896 -6.912,-8.496 l -50.688,-44.64 z"
       id="path3335"
       style="fill:#ffffff;fill-opacity:1" /><path
       d="m 1729.9937,-106.52501 c 27.216,0 38.16,-18.144 38.16,-39.024 0,-16.56 -9.792,-28.656 -28.8,-28.656 h -43.92 l -10.224,83.519996 c -0.576,5.04 -1.872,14.544 -2.16,17.28 h 27.936 c 0.288,-2.736 1.152,-12.24 1.872,-17.28 l 2.016,-15.839996 z m -12.528,-21.024 3.024,-25.344 h 9.504 c 7.344,0 11.088,4.464 11.088,10.656 0,8.352 -5.328,14.688 -14.112,14.688 z"
       id="path3337"
       style="fill:#ffffff;fill-opacity:1" /><path
       d="m 1789.3217,-174.20501 -10.224,83.519996 c -0.576,5.04 -1.872,14.544 -2.16,17.28 h 27.936 c 0.288,-2.736 1.296,-12.24 1.872,-17.28 l 2.448,-20.159996 h 6.48 l 6.624,24.623996 c 1.152,4.32 2.304,8.352 3.456,12.816 h 28.944 c 0,0 -2.736,-9.648 -4.464,-15.696 l -7.344,-25.055996 c 10.8,-4.896 18.576,-15.84 18.576,-31.824 0,-16.704 -10.944,-28.224 -28.8,-28.224 z m 25.056,22.176 h 9.216 c 5.76,0 9.504,4.32 9.504,9.792 0,6.624 -5.76,12.096 -12.816,12.096 h -8.64 z"
       id="path3339"
       style="fill:#ffffff;fill-opacity:1" /><path
       d="m 1868.9538,-73.405014 h 39.6 c 5.04,0 14.4,0.144 17.136,0.144 l 3.024,-23.904 c -2.736,0 -12.24,0.144 -17.28,0.144 h -14.112 l 1.728,-14.975996 h 6.336 c 5.04,0 14.544,0.144 17.28,0.144 l 3.024,-23.904 c -2.736,0 -12.24,0.144 -17.28,0.144 h -6.336 l 1.728,-14.976 h 11.808 c 5.04,0 14.544,0.144 17.28,0.144 l 3.024,-23.904 c -2.736,0 -12.384,0.144 -17.424,0.144 h -37.296 z"
       id="path3341"
       style="fill:#ffffff;fill-opacity:1" /><path
       d="m 2019.4338,-160.81301 c -4.752,-6.336 -14.4,-16.272 -30.816,-16.272 -19.008,0 -35.712,15.696 -35.712,32.688 0,24.48 34.992,31.248 34.992,44.208 0,4.751996 -4.32,8.639996 -10.224,8.639996 -7.92,0 -13.392,-5.616 -16.272,-12.815996 l -22.464,12.239996 c 5.904,12.384 17.856,21.6 35.856,21.6 22.176,0 40.032,-14.256 40.032,-34.847996 0,-14.4 -10.512,-21.6 -21.456,-29.808 -5.904,-4.32 -13.968,-8.352 -13.968,-14.688 0,-3.312 2.736,-6.48 7.2,-6.48 6.768,0 11.376,4.896 14.832,10.512 z"
       id="path3343"
       style="fill:#ffffff;fill-opacity:1" /><path
       d="m 2102.5217,-160.81301 c -4.752,-6.336 -14.4,-16.272 -30.816,-16.272 -19.008,0 -35.712,15.696 -35.712,32.688 0,24.48 34.992,31.248 34.992,44.208 0,4.751996 -4.32,8.639996 -10.224,8.639996 -7.92,0 -13.392,-5.616 -16.272,-12.815996 l -22.464,12.239996 c 5.904,12.384 17.856,21.6 35.856,21.6 22.176,0 40.032,-14.256 40.032,-34.847996 0,-14.4 -10.512,-21.6 -21.456,-29.808 -5.904,-4.32 -13.968,-8.352 -13.968,-14.688 0,-3.312 2.736,-6.48 7.2,-6.48 6.768,0 11.376,4.896 14.832,10.512 z"
       id="path3345"
       style="fill:#ffffff;fill-opacity:1" /><path
       d="m 2179.5616,-174.20501 -10.224,83.519996 c -0.576,5.04 -1.872,14.544 -2.16,17.28 h 27.936 c 0.288,-2.736 1.296,-12.24 1.872,-17.28 l 2.448,-20.159996 h 6.48 l 6.624,24.623996 c 1.152,4.32 2.304,8.352 3.456,12.816 h 28.944 c 0,0 -2.736,-9.648 -4.464,-15.696 l -7.344,-25.055996 c 10.8,-4.896 18.576,-15.84 18.576,-31.824 0,-16.704 -10.944,-28.224 -28.8,-28.224 z m 25.056,22.176 h 9.216 c 5.76,0 9.504,4.32 9.504,9.792 0,6.624 -5.76,12.096 -12.816,12.096 h -8.64 z"
       id="path3347"
       style="fill:#ffffff;fill-opacity:1" /><path
       d="m 2259.1936,-73.405014 h 39.6 c 5.04,0 14.4,0.144 17.136,0.144 l 3.024,-23.904 c -2.736,0 -12.24,0.144 -17.28,0.144 h -14.112 l 1.728,-14.975996 h 6.336 c 5.04,0 14.544,0.144 17.28,0.144 l 3.024,-23.904 c -2.736,0 -12.24,0.144 -17.28,0.144 h -6.336 l 1.728,-14.976 h 11.808 c 5.04,0 14.544,0.144 17.28,0.144 l 3.024,-23.904 c -2.736,0 -12.384,0.144 -17.424,0.144 h -37.296 z"
       id="path3349"
       style="fill:#ffffff;fill-opacity:1" /><path
       d="m 2380.4416,-71.245014 53.136,-84.671996 c 3.744,-5.904 10.08,-15.552 11.664,-18.288 h -31.104 c -1.296,2.592 -4.752,8.64 -7.488,13.248 l -13.824,23.472 c -3.456,5.904 -6.336,12.672 -6.624,14.4 h -0.576 c 0,-1.728 -2.016,-9.648 -3.744,-14.4 l -8.496,-23.328 c -1.728,-4.608 -3.888,-10.8 -4.752,-13.392 h -30.528 c 2.736,6.192 5.04,12.384 7.488,18.72 l 32.544,84.239996 z"
       id="path3351"
       style="fill:#ffffff;fill-opacity:1" /><path
       d="m 2459.4977,-174.20501 c -0.288,2.736 -1.296,12.24 -1.872,17.28 l -8.208,66.239996 c -0.576,5.04 -1.872,14.544 -2.16,17.28 h 27.936 c 0.288,-2.736 1.296,-12.24 1.872,-17.28 l 8.208,-66.239996 c 0.576,-5.04 1.872,-14.544 2.16,-17.28 z"
       id="path3353"
       style="fill:#ffffff;fill-opacity:1" /><path
       d="m 2497.3695,-73.405014 h 39.6 c 5.04,0 14.4,0.144 17.136,0.144 l 3.024,-23.904 c -2.736,0 -12.24,0.144 -17.28,0.144 h -14.112 l 1.728,-14.975996 h 6.336 c 5.04,0 14.544,0.144 17.28,0.144 l 3.024,-23.904 c -2.736,0 -12.24,0.144 -17.28,0.144 h -6.336 l 1.728,-14.976 h 11.808 c 5.04,0 14.544,0.144 17.28,0.144 l 3.024,-23.904 c -2.736,0 -12.384,0.144 -17.424,0.144 h -37.296 z"
       id="path3355"
       style="fill:#ffffff;fill-opacity:1" /><path
       d="m 2643.5296,-123.80501 h 0.288 c 0,1.584 1.296,9.216 3.024,14.4 l 13.68,40.031996 h 2.592 l 51.984,-86.399996 c 2.736,-4.608 9.648,-15.84 11.232,-18.432 h -29.52 c -2.304,4.464 -4.896,9.216 -7.632,13.824 l -14.688,24.48 c -2.736,4.608 -6.48,12.96 -6.768,14.4 h -0.576 c 0,-1.728 -1.008,-8.208 -3.024,-14.4 l -13.248,-39.456 h -2.592 l -22.32,39.456 c -3.456,6.192 -6.192,12.672 -6.48,14.4 h -0.576 c 0,-1.44 -1.44,-9.936 -3.024,-14.4 l -8.928,-24.48 c -1.728,-4.608 -3.168,-9.36 -4.608,-13.824 h -27.504 c 0.72,2.592 4.752,13.824 6.336,18.432 l 30.096,86.399996 h 2.592 l 23.04,-40.031996 c 3.024,-5.184 6.48,-12.672 6.624,-14.4 z"
       id="path3357"
       style="fill:#ffffff;fill-opacity:1" /></g><path
     style="fill:none;stroke:#ffffff;stroke-width:16;stroke-linecap:round;stroke-dasharray:none;stroke-opacity:1;marker-start:url(#Cap4)"
     d="M 576,255.95114 H 3576"
     id="path4796" /></svg>
