<?xml version="1.0" encoding="UTF-8" standalone="no"?>
<!-- Created with Inkscape (http://www.inkscape.org/) -->

<svg
   width="1104"
   height="256"
   viewBox="0 0 1104 256.00001"
   version="1.1"
   id="svg5"
   xml:space="preserve"
   sodipodi:docname="[Article] Wahlhelfer.svg"
   inkscape:export-filename="[Article] Wahlhelfer.svg"
   inkscape:export-xdpi="96"
   inkscape:export-ydpi="96"
   inkscape:version="1.2.2 (732a01da63, 2022-12-09)"
   xmlns:inkscape="http://www.inkscape.org/namespaces/inkscape"
   xmlns:sodipodi="http://sodipodi.sourceforge.net/DTD/sodipodi-0.dtd"
   xmlns:xlink="http://www.w3.org/1999/xlink"
   xmlns="http://www.w3.org/2000/svg"
   xmlns:svg="http://www.w3.org/2000/svg"
   xmlns:rdf="http://www.w3.org/1999/02/22-rdf-syntax-ns#"
   xmlns:cc="http://creativecommons.org/ns#"
   xmlns:dc="http://purl.org/dc/elements/1.1/"><sodipodi:namedview
     id="namedview56"
     pagecolor="#505050"
     bordercolor="#eeeeee"
     borderopacity="1"
     inkscape:showpageshadow="0"
     inkscape:pageopacity="0"
     inkscape:pagecheckerboard="0"
     inkscape:deskcolor="#505050"
     showgrid="false"
     inkscape:zoom="1.1231342"
     inkscape:cx="564.93694"
     inkscape:cy="150.47178"
     inkscape:window-width="1920"
     inkscape:window-height="1017"
     inkscape:window-x="1912"
     inkscape:window-y="-8"
     inkscape:window-maximized="1"
     inkscape:current-layer="svg5" /><title
     id="title21947">Tepertopier Presseschau - Wahlhelfer Head</title><defs
     id="defs2"><marker
       style="overflow:visible"
       id="Dot"
       refX="0"
       refY="0"
       orient="auto"
       markerWidth="1"
       markerHeight="1"
       viewBox="0 0 5.6666667 5.6666667"
       preserveAspectRatio="xMidYMid"><path
         transform="scale(0.5)"
         style="fill:context-stroke;fill-rule:evenodd;stroke:context-stroke;stroke-width:1pt"
         d="M 5,0 C 5,2.76 2.76,5 0,5 -2.76,5 -5,2.76 -5,0 c 0,-2.76 2.3,-5 5,-5 2.76,0 5,2.24 5,5 z"
         id="Dot1" /></marker><linearGradient
       id="linearGradient7871"><stop
         style="stop-color:#2525c5;stop-opacity:1;"
         offset="0"
         id="stop7867" /><stop
         style="stop-color:#000072;stop-opacity:1;"
         offset="1"
         id="stop7869" /></linearGradient><radialGradient
       xlink:href="#linearGradient7871"
       id="radialGradient7873"
       cx="407.48016"
       cy="104.60635"
       fx="407.48016"
       fy="104.60635"
       r="256"
       gradientUnits="userSpaceOnUse"
       gradientTransform="matrix(1.0549413,4.0346368e-6,-4.0758157e-6,1.0657083,-217.86723,-67.481514)" /></defs><metadata
     id="metadata21945"><rdf:RDF><cc:Work
         rdf:about=""><dc:title>Tepertopier Presseschau - Wahlhelfer Head</dc:title><dc:date>2023-09-29</dc:date><dc:creator><cc:Agent><dc:title>anjo / Tepertopia</dc:title></cc:Agent></dc:creator><dc:description>Tepertopier Presseschau header for articles from the Der Wahlhelfer newspaper.</dc:description><cc:license
           rdf:resource="http://creativecommons.org/licenses/by-sa/4.0/" /></cc:Work><cc:License
         rdf:about="http://creativecommons.org/licenses/by-sa/4.0/"><cc:permits
           rdf:resource="http://creativecommons.org/ns#Reproduction" /><cc:permits
           rdf:resource="http://creativecommons.org/ns#Distribution" /><cc:requires
           rdf:resource="http://creativecommons.org/ns#Notice" /><cc:requires
           rdf:resource="http://creativecommons.org/ns#Attribution" /><cc:permits
           rdf:resource="http://creativecommons.org/ns#DerivativeWorks" /><cc:requires
           rdf:resource="http://creativecommons.org/ns#ShareAlike" /></cc:License></rdf:RDF></metadata><g
     id="presseschau-icon"
     transform="matrix(0.4375,0,0,0.4375,16,16.000025)"><rect
       style="fill:url(#radialGradient7873);fill-opacity:1;stroke:none;stroke-width:7;stroke-linecap:butt;stroke-dasharray:none;stroke-opacity:1"
       id="bg"
       width="224"
       height="224"
       x="16"
       y="16"
       rx="28"
       ry="28"
       transform="matrix(2.2857143,0,0,2.2857143,-36.571429,-36.571429)" /><path
       d="m 354.05196,436.66508 c -1.44036,0 -2.43697,-1.1786 -2.21455,-2.61897 l 10.91921,-70.71114 h 60.23528 l -10.91921,70.71114 c -0.14154,0.91662 -0.15198,1.83323 -0.0115,2.61897 z m 76.79684,-73.33011 1.21324,-7.85671 h -75.94889 l -12.13245,78.56785 c -0.88972,5.76168 3.09635,10.47564 8.85803,10.47564 h 68.09217 c 5.76168,0 11.20357,-4.71396 12.09329,-10.47564 l 10.91921,-70.71114 z"
       id="symbol"
       style="fill:#daa520;fill-opacity:1;stroke:#daa520;stroke-width:6.9565;stroke-dasharray:none;stroke-opacity:1" /><path
       d="m 224,64 c -6.11669,0 -27.68613,0.228253 -38.95372,0.228253 H 109.07043 C 97.802817,64.228253 76.877269,64 70.760564,64 L 64,101.88872 c 6.116705,0 27.364187,-0.22823 38.63179,-0.22823 h 7.08249 l -16.418513,94.95006 c -1.28771,7.98859 -4.1851,23.05278 -4.828971,27.38945 h 62.454734 c 0.64386,-4.33667 2.89738,-19.40086 4.18512,-27.38945 l 16.41849,-94.95006 h 7.08251 c 11.2676,0 32.51509,0.22823 38.63178,0.22823 z"
       id="letter-t"
       style="font-style:italic;font-weight:bold;font-size:144px;font-family:Semplicità;-inkscape-font-specification:'Semplicità Bold Italic';fill:#daa520;stroke:none;stroke-width:18.8244" /><path
       d="m 376.25719,171.42857 c 51.16753,0 71.74281,-28.8 71.74281,-61.94286 C 448,83.199994 429.59052,64 393.85447,64 h -82.5719 l -19.22166,132.57142 c -1.08292,8 -3.51946,23.08571 -4.06091,27.42858 h 52.52115 c 0.54145,-4.34287 2.16582,-19.42858 3.51946,-27.42858 l 3.79018,-25.14285 z m -23.55331,-33.37143 5.68529,-40.228555 h 17.86802 c 13.8071,0 20.84603,7.085715 20.84603,16.914275 0,13.25715 -10.01694,23.31428 -26.53132,23.31428 z"
       id="letter-p"
       style="font-style:italic;font-weight:bold;font-size:144px;font-family:Semplicità;-inkscape-font-specification:'Semplicità Bold Italic';fill:#daa520;stroke:none;stroke-width:17.2748" /><path
       d="M 87.441231,288 68.088593,420.57141 C 66.998306,428.57143 64.545144,443.65713 64,448 h 52.87904 c 0.54516,-4.34287 2.45315,-19.42857 3.54344,-27.42859 l 4.63374,-31.99999 h 12.26576 l 12.53833,39.08572 c 2.18057,6.85714 4.36116,13.25713 6.54173,20.34286 h 54.78706 c 0,0 -5.17888,-15.31427 -8.44976,-24.91429 L 188.83815,383.31427 C 209.28109,375.54284 224,358.17143 224,332.8 224,306.28572 203.28449,288 169.48552,288 Z m 47.427579,35.19999 h 17.44464 c 10.90291,0 17.98979,6.85717 17.98979,15.54287 0,10.51428 -10.9029,19.2 -24.25894,19.2 h -16.35436 z"
       id="letter-r"
       style="font-style:italic;font-weight:bold;font-size:144px;font-family:Semplicità;-inkscape-font-specification:'Semplicità Bold Italic';fill:#daa520;stroke:none;stroke-width:17.3336" /></g><path
     style="fill:none;stroke:#daa520;stroke-width:16;stroke-linecap:round;stroke-dasharray:none;stroke-opacity:1"
     d="M 327.99997,8 V 248.00011"
     id="divider" /><g
     id="wahlhelfer-logo"
     transform="translate(8.7499998e-8,2.4999998e-5)"><g
       id="wahlhelfer-icon"
       transform="matrix(0.64285715,0,0,0.64285715,148.57141,85.714286)"><circle
         style="fill:none;fill-opacity:1;stroke:#000072;stroke-width:5.33048;stroke-linecap:round;stroke-dasharray:none;stroke-opacity:1"
         id="vote-circle"
         cx="527.99994"
         cy="128"
         r="45.334759" /><path
         d="m 574.67584,67.416373 q 1.32413,0.683274 1.32413,2.733096 0,2.049822 -0.66207,2.733096 -13.90344,17.765124 -32.44137,43.729535 12.57931,25.96441 19.2,39.62989 -0.66207,1.36655 -2.64828,2.04983 v 1.36654 q -0.66207,1.36655 -3.31035,2.7331 1.98621,3.41637 0,4.09964 -1.9862,1.36655 -2.64827,2.04983 -2.64828,1.36654 -5.29655,-2.04983 -9.93104,-13.66548 -19.2,-30.74733 -17.2138,26.64769 -30.45518,49.19573 -3.31034,5.46619 -4.63448,6.14947 -1.98621,1.36655 -5.95862,0.68327 -3.31034,0.68328 -3.97241,-1.36655 -0.66207,-1.36654 -1.98621,-4.09964 -1.32414,-1.36655 -1.32414,-3.41637 0.66207,-2.04982 1.32414,-4.78292 l -1.98621,-3.41637 q 7.94483,-15.7153 39.72414,-58.07829 -9.26896,-19.814945 -15.88965,-40.313165 0,-2.049822 3.31034,-4.782918 1.98621,-2.049822 3.31035,-0.683274 0.66206,1.366548 2.64827,0.683274 1.98621,-0.683274 2.64828,-2.049822 0.66207,-0.683274 1.9862,-0.683274 1.98621,0.683274 2.64828,2.049822 3.31035,8.199288 13.24138,27.33096 13.24138,-15.715302 26.48276,-32.797152 0.66207,-1.366548 1.98621,-1.366548 1.9862,0 3.97241,2.049822 1.98621,2.049822 2.64828,0.683274 1.32413,-0.683274 1.9862,-1.366548 1.32414,-1.366548 1.32414,-0.683274 0.66207,1.366548 2.64828,2.733096 z"
         id="vote-mark"
         style="font-size:72px;font-family:'1492_Quadrata_lim';-inkscape-font-specification:'1492_Quadrata_lim';fill:#daa520;fill-opacity:1;stroke-width:2.391;stroke-linecap:round;stroke-dasharray:none" /><g
         style="overflow:hidden;fill:#000000;fill-opacity:1"
         id="wreath"
         transform="matrix(3.0073786,0,0,2.958608,383.6458,-18.582341)"><title
           id="title3065">Laurel Wreath</title><path
           d="M 62.2,69.6 C 56.3,68 50.6,69 48,69.6 45.4,69 39.7,68 33.8,69.5 c -8,2.1 -13.3,8.2 -13.3,8.2 0,0 7.7,2.6 15.7,0.5 1.3,-0.4 2.6,-0.8 3.8,-1.4 -1.5,2.1 -3,3.8 -6.1,5.1 l 2.3,5.5 c 5.4,-2.3 7.7,-5.7 9.8,-8.7 0.7,-1 1.3,-1.9 2.1,-2.8 0.7,0.9 1.4,1.8 2.1,2.8 2,3 4.3,6.4 9.8,8.7 l 2.3,-5.5 c -3.1,-1.3 -4.6,-3 -6.1,-5.1 1.2,0.5 2.4,1 3.8,1.4 8,2.1 15.7,-0.5 15.7,-0.5 0,0 -5.5,-6 -13.5,-8.1 z"
           id="wreath-base"
           style="fill:#000000;fill-opacity:1"
           clip-path="none" /><g
           id="wreath-right"
           style="fill:#000000;fill-opacity:1"
           clip-path="none"><path
             d="m 58.02829,66.973255 c 0,0 8.035365,1.217746 15.546727,-2.244831 7.511362,-3.462578 11.666705,-10.393171 11.666705,-10.393171 0,0 -8.035365,-1.217746 -15.546727,2.244831 C 62.183633,60.042662 58.02829,66.973255 58.02829,66.973255 Z"
             id="leaf-r-b"
             style="fill:#000000;fill-opacity:1" /><path
             d="m 67.921576,55.381793 c 0,0 6.936442,-4.235063 10.461674,-11.717225 3.525231,-7.482162 2.250198,-15.461779 2.250198,-15.461779 0,0 -6.936442,4.235063 -10.461674,11.717225 -3.525231,7.482162 -2.250198,15.461779 -2.250198,15.461779 z"
             id="leaf-r-m"
             style="fill:#000000;fill-opacity:1" /><path
             d="m 67.652229,40.68582 c 0,0 2.597103,-7.700977 0.494093,-15.700187 -2.103011,-7.999209 -8.205005,-13.296913 -8.205005,-13.296913 0,0 -2.597103,7.700977 -0.494093,15.700187 2.103011,7.999209 8.205005,13.296913 8.205005,13.296913 z"
             id="leaf-r-t"
             style="fill:#000000;fill-opacity:1" /></g><g
           id="wreath-left"
           transform="matrix(-1,0,0,1,95.999973,0)"
           style="fill:#000000;fill-opacity:1"
           clip-path="none"><path
             d="m 58.02829,66.973255 c 0,0 8.035365,1.217746 15.546727,-2.244831 7.511362,-3.462578 11.666705,-10.393171 11.666705,-10.393171 0,0 -8.035365,-1.217746 -15.546727,2.244831 C 62.183633,60.042662 58.02829,66.973255 58.02829,66.973255 Z"
             id="leaf-l-b"
             style="fill:#000000;fill-opacity:1" /><path
             d="m 67.921576,55.381793 c 0,0 6.936442,-4.235063 10.461674,-11.717225 3.525231,-7.482162 2.250198,-15.461779 2.250198,-15.461779 0,0 -6.936442,4.235063 -10.461674,11.717225 -3.525231,7.482162 -2.250198,15.461779 -2.250198,15.461779 z"
             id="leaf-l-m"
             style="fill:#000000;fill-opacity:1" /><path
             d="m 67.652229,40.68582 c 0,0 2.597103,-7.700977 0.494093,-15.700187 -2.103011,-7.999209 -8.205005,-13.296913 -8.205005,-13.296913 0,0 -2.597103,7.700977 -0.494093,15.700187 2.103011,7.999209 8.205005,13.296913 8.205005,13.296913 z"
             id="leaf-l-t"
             style="fill:#000000;fill-opacity:1" /></g></g></g><g
       id="text-der"
       style="font-size:72px;font-family:'Arial Rounded MT Bold';-inkscape-font-specification:'Arial Rounded MT Bold, ';fill:#000000;fill-opacity:1;stroke-width:2.391;stroke-linecap:round"
       transform="matrix(1.183815,0,0,1.2209554,-386.46966,-25.640062)"><path
         d="m 684.26587,34.104492 h 13.60547 q 5.30859,0 9.10547,0.984375 3.79687,0.984375 6.89062,3.691406 8.05078,6.890625 8.05078,20.953125 0,4.640625 -0.80859,8.472657 -0.80859,3.832031 -2.49609,6.925781 -1.6875,3.058594 -4.32422,5.484375 -2.07422,1.863281 -4.53516,2.988281 -2.46094,1.125 -5.30859,1.582031 -2.8125,0.457032 -6.36328,0.457032 h -13.60547 q -2.84766,0 -4.28907,-0.84375 -1.4414,-0.878907 -1.89843,-2.425782 -0.42188,-1.582031 -0.42188,-4.078125 V 40.50293 q 0,-3.375 1.51172,-4.886719 1.51172,-1.511719 4.88672,-1.511719 z m 4.04297,8.261719 V 77.34668 h 7.91015 q 2.60157,0 4.07813,-0.140625 1.47656,-0.140625 3.05859,-0.703125 1.58203,-0.5625 2.74219,-1.582032 5.23828,-4.429687 5.23828,-15.257812 0,-7.628906 -2.32031,-11.425781 -2.28516,-3.796875 -5.66016,-4.816407 -3.375,-1.054687 -8.15625,-1.054687 z"
         id="path5747"
         style="fill:#000000;fill-opacity:1" /><path
         d="m 757.21509,69.366211 h -18.77344 q 0.0352,3.269531 1.30078,5.765625 1.30078,2.496094 3.41016,3.761719 2.14453,1.265625 4.71094,1.265625 1.72265,0 3.1289,-0.386719 1.44141,-0.421875 2.77735,-1.265625 1.33593,-0.878906 2.46093,-1.863281 1.125,-0.984375 2.91797,-2.671875 0.73828,-0.632813 2.10938,-0.632813 1.47656,0 2.39062,0.808594 0.91406,0.808594 0.91406,2.285156 0,1.300781 -1.01953,3.058594 -1.01953,1.722656 -3.09375,3.339844 -2.03906,1.582031 -5.16797,2.636718 -3.09375,1.054688 -7.13671,1.054688 -9.2461,0 -14.37891,-5.273438 -5.13281,-5.273437 -5.13281,-14.308593 0,-4.253907 1.26562,-7.875 1.26563,-3.65625 3.69141,-6.257813 2.42578,-2.601562 5.97656,-3.972656 3.55078,-1.40625 7.875,-1.40625 5.625,0 9.63281,2.390625 4.04297,2.355469 6.04688,6.117187 2.0039,3.761719 2.0039,7.664063 0,3.621094 -2.07421,4.710937 -2.07422,1.054688 -5.83594,1.054688 z m -18.77344,-5.449219 h 17.40234 q -0.35156,-4.921875 -2.67187,-7.347656 -2.28516,-2.460938 -6.04688,-2.460938 -3.58593,0 -5.90625,2.496094 -2.28515,2.460938 -2.77734,7.3125 z"
         id="path5749"
         style="fill:#000000;fill-opacity:1" /><path
         d="m 782.73853,72.670898 v 8.015625 q 0,2.917969 -1.3711,4.394532 -1.37109,1.441406 -3.48047,1.441406 -2.07422,0 -3.41015,-1.476563 -1.33594,-1.476562 -1.33594,-4.359375 v -26.71875 q 0,-6.46875 4.67578,-6.46875 2.39063,0 3.44531,1.511719 1.05469,1.511719 1.16016,4.464844 1.72266,-2.953125 3.51562,-4.464844 1.82813,-1.511719 4.85157,-1.511719 3.02343,0 5.87109,1.511719 2.84766,1.511719 2.84766,4.007813 0,1.757812 -1.23047,2.917968 -1.19531,1.125 -2.60156,1.125 -0.52735,0 -2.56641,-0.632812 -2.00391,-0.667969 -3.55078,-0.667969 -2.10938,0 -3.44531,1.125 -1.33594,1.089844 -2.07422,3.269531 -0.73828,2.179688 -1.01953,5.203125 -0.28125,2.988282 -0.28125,7.3125 z"
         id="path5751"
         style="fill:#000000;fill-opacity:1" /></g><g
       id="text-wahlhelfer"
       style="font-size:72px;font-family:'Arial Rounded MT Bold';-inkscape-font-specification:'Arial Rounded MT Bold, ';fill:#0015b2;stroke-width:2.391;stroke-linecap:round"
       transform="matrix(1.6850443,0,0,1.8012315,-558.71317,-213.78075)"><g
         id="text-wahl"
         transform="matrix(1.0833333,0,0,1.0833333,-56.116874,-5.9256936)"
         style="fill:#daa520;fill-opacity:1"><g
           id="bar-chart"
           transform="matrix(0.54780575,0,0,0.51246991,357.86648,115.02607)"><path
             style="fill:none;fill-opacity:1;stroke:#000072;stroke-width:19.06;stroke-linecap:butt;stroke-dasharray:none;stroke-opacity:1;marker-end:url(#Dot)"
             d="m 945.901,93.54623 c 0,-22.671129 0,-45.343205 0,-68.01623"
             id="path8156" /><path
             style="fill:none;fill-opacity:1;stroke:#000072;stroke-width:19.06;stroke-linecap:butt;stroke-dasharray:none;stroke-opacity:1;marker-end:url(#Dot)"
             d="m 980.961,93.546227 c 0,-8.38152 0,-16.763389 0,-25.145609"
             id="path8461" /><path
             style="fill:none;fill-opacity:1;stroke:#000072;stroke-width:19.06;stroke-linecap:butt;stroke-dasharray:none;stroke-opacity:1;marker-end:url(#Dot)"
             d="m 1016.021,93.546227 c 0,-18.181917 0,-36.364592 0,-54.548028"
             id="path8485" /><path
             style="fill:none;fill-opacity:1;stroke:#000072;stroke-width:19.06;stroke-linecap:butt;stroke-dasharray:none;stroke-opacity:1;marker-end:url(#Dot)"
             d="m 1051.081,93.546227 c 0,-5.724556 0,-11.44935 0,-17.174384"
             id="path11487" /></g><path
           d="m 714.28931,167.52246 -8.33203,-30.90234 -8.4375,30.90234 q -0.98438,3.51563 -1.58204,5.0625 -0.5625,1.51172 -2.0039,2.74219 -1.44141,1.19531 -3.83203,1.19531 -1.9336,0 -3.19922,-0.73828 -1.23047,-0.70313 -2.00391,-2.00391 -0.77344,-1.33593 -1.26562,-3.1289 -0.49219,-1.82813 -0.87891,-3.375 l -8.57812,-34.69922 q -0.77344,-3.02344 -0.77344,-4.60547 0,-2.00391 1.40625,-3.375 1.40625,-1.37109 3.48047,-1.37109 2.84765,0 3.83203,1.82812 0.98437,1.82813 1.72265,5.30859 l 6.75,30.09375 7.5586,-28.16015 q 0.84375,-3.23438 1.51172,-4.92188 0.66797,-1.6875 2.17968,-2.91797 1.51172,-1.23046 4.11329,-1.23046 2.63671,0 4.07812,1.30078 1.47656,1.26562 2.03906,2.77734 0.5625,1.51172 1.51172,4.99219 l 7.62891,28.16015 6.75,-30.09375 q 0.49219,-2.35546 0.91406,-3.6914 0.45703,-1.33594 1.51172,-2.39063 1.08984,-1.05468 3.12891,-1.05468 2.03906,0 3.44531,1.37109 1.4414,1.33594 1.4414,3.375 0,1.44141 -0.77343,4.60547 l -8.57813,34.69922 q -0.8789,3.51562 -1.47656,5.16797 -0.5625,1.61718 -1.96875,2.84765 -1.37109,1.23047 -3.90234,1.23047 -2.39063,0 -3.83204,-1.19531 -1.4414,-1.19531 -2.0039,-2.67188 -0.5625,-1.51172 -1.58203,-5.13281 z"
           id="path5753"
           style="fill:#daa520;fill-opacity:1" /><path
           d="m 778.30884,169.80762 -2.46094,-6.46875 h -20.95312 l -2.46094,6.60937 q -1.44141,3.86719 -2.46094,5.23828 -1.01953,1.33594 -3.33984,1.33594 -1.96875,0 -3.48047,-1.44141 -1.51172,-1.4414 -1.51172,-3.26953 0,-1.05468 0.35156,-2.17968 0.35156,-1.125 1.16016,-3.12891 l 13.18359,-33.46875 q 0.5625,-1.44141 1.33594,-3.44531 0.80859,-2.03907 1.6875,-3.375 0.91406,-1.33594 2.35547,-2.14453 1.47656,-0.84375 3.62109,-0.84375 2.17969,0 3.6211,0.84375 1.47656,0.80859 2.35546,2.10937 0.91407,1.30078 1.51172,2.8125 0.63282,1.47656 1.58203,3.97266 l 13.46485,33.25781 q 1.58203,3.79687 1.58203,5.51953 0,1.79297 -1.51172,3.30469 -1.47656,1.47656 -3.58594,1.47656 -1.23047,0 -2.10937,-0.45703 -0.87891,-0.42188 -1.47656,-1.16016 -0.59766,-0.77343 -1.30079,-2.32031 -0.66796,-1.58203 -1.16015,-2.77734 z m -20.67188,-14.3086 h 15.39844 l -7.76953,-21.26953 z"
           id="path5755"
           style="fill:#daa520;fill-opacity:1" /><path
           d="m 807.62915,129.55371 v 14.76563 h 22.53516 v -14.76563 q 0,-3.16406 1.40625,-4.74609 1.4414,-1.58203 3.76172,-1.58203 2.35546,0 3.79687,1.58203 1.47656,1.54687 1.47656,4.74609 v 40.60547 q 0,3.19922 -1.47656,4.78125 -1.47656,1.58203 -3.79687,1.58203 -2.35547,0 -3.76172,-1.58203 -1.40625,-1.61719 -1.40625,-4.78125 v -17.33203 h -22.53516 v 17.33203 q 0,3.19922 -1.47656,4.78125 -1.47656,1.58203 -3.79688,1.58203 -2.35547,0 -3.76172,-1.58203 -1.40625,-1.61719 -1.40625,-4.78125 v -40.60547 q 0,-3.16406 1.3711,-4.74609 1.40625,-1.58203 3.79687,-1.58203 2.35547,0 3.79688,1.58203 1.47656,1.54687 1.47656,4.74609 z"
           id="path5757"
           style="fill:#daa520;fill-opacity:1" /><path
           d="m 862.051,129.55371 3e-5,37.51172 h 86.5899 c 1.6875,0 2.97657,0.41016 3.86719,1.23047 0.91406,0.82031 1.37109,1.85156 1.37109,3.09375 0,1.26563 -0.44531,2.29688 -1.33594,3.09375 -0.89062,0.77343 -2.1914,1.16015 -3.90234,1.16015 h -90.63287 c -2.27344,0 -3.91407,-0.5039 -4.92188,-1.51171 -0.98437,-1.00781 -1.47656,-2.63672 -1.47656,-4.88672 v -39.69141 c 0,-2.10937 0.46875,-3.6914 1.40625,-4.74609 0.96094,-1.05469 2.21485,-1.58203 3.76172,-1.58203 1.57031,0 2.83594,0.52734 3.79687,1.58203 0.98438,1.03125 1.47654,2.61328 1.47654,4.74609 z"
           id="path5759"
           style="fill:#daa520;fill-opacity:1" /></g><g
         id="text-helfer"
         transform="matrix(1.0833333,0,0,1.0833333,-296.59148,60.695393)"
         style="fill:#000000;fill-opacity:1"><path
           d="m 905.82056,129.55371 v 14.76563 h 22.53515 v -14.76563 q 0,-3.16406 1.40625,-4.74609 1.44141,-1.58203 3.76172,-1.58203 2.35547,0 3.79688,1.58203 1.47656,1.54687 1.47656,4.74609 v 40.60547 q 0,3.19922 -1.47656,4.78125 -1.47657,1.58203 -3.79688,1.58203 -2.35547,0 -3.76172,-1.58203 -1.40625,-1.61719 -1.40625,-4.78125 v -17.33203 h -22.53515 v 17.33203 q 0,3.19922 -1.47657,4.78125 -1.47656,1.58203 -3.79687,1.58203 -2.35547,0 -3.76172,-1.58203 -1.40625,-1.61719 -1.40625,-4.78125 v -40.60547 q 0,-3.16406 1.37109,-4.74609 1.40625,-1.58203 3.79688,-1.58203 2.35547,0 3.79687,1.58203 1.47657,1.54687 1.47657,4.74609 z"
           id="path5761"
           style="fill:#000000;fill-opacity:1" /><path
           d="m 983.9729,132.15527 h -23.51953 v 12.65625 h 21.65625 q 2.39062,0 3.55078,1.08985 1.19531,1.05468 1.19531,2.8125 0,1.75781 -1.16015,2.88281 -1.16016,1.08984 -3.58594,1.08984 h -21.65625 v 14.66016 h 24.32812 q 2.46094,0 3.69141,1.16016 1.26563,1.125 1.26563,3.02343 0,1.82813 -1.26563,2.98828 -1.23047,1.125 -3.69141,1.125 H 956.4104 q -3.41016,0 -4.92187,-1.51171 -1.47657,-1.51172 -1.47657,-4.88672 v -38.74219 q 0,-2.25 0.66797,-3.65625 0.66797,-1.44141 2.07422,-2.07422 1.44141,-0.66797 3.65625,-0.66797 h 27.5625 q 2.49609,0 3.69141,1.125 1.23047,1.08985 1.23047,2.88281 0,1.82813 -1.23047,2.95313 -1.19532,1.08984 -3.69141,1.08984 z"
           id="path5763"
           style="fill:#000000;fill-opacity:1" /><path
           d="m 1008.2659,129.55371 v 37.51172 h 21.164 q 2.5313,0 3.8672,1.23047 1.3711,1.23047 1.3711,3.09375 0,1.89844 -1.3359,3.09375 -1.336,1.16015 -3.9024,1.16015 h -25.207 q -3.4102,0 -4.92187,-1.51171 -1.47657,-1.51172 -1.47657,-4.88672 v -39.69141 q 0,-3.16406 1.40625,-4.74609 1.44139,-1.58203 3.76169,-1.58203 2.3555,0 3.7969,1.58203 1.4766,1.54687 1.4766,4.74609 z"
           id="path5765"
           style="fill:#000000;fill-opacity:1" /><path
           d="m 1072.3206,132.15527 h -20.5664 v 13.1836 h 17.1914 q 2.3906,0 3.5507,1.08984 1.1954,1.05469 1.1954,2.84766 0,1.79297 -1.1954,2.84765 -1.1953,1.05469 -3.5507,1.05469 h -17.1914 v 16.98047 q 0,3.23437 -1.4766,4.81641 -1.4414,1.54687 -3.7266,1.54687 -2.3203,0 -3.7968,-1.58203 -1.4415,-1.58203 -1.4415,-4.78125 v -39.65625 q 0,-2.25 0.668,-3.65625 0.668,-1.44141 2.0742,-2.07422 1.4414,-0.66797 3.6563,-0.66797 h 24.6094 q 2.4961,0 3.6914,1.125 1.2304,1.08985 1.2304,2.88281 0,1.82813 -1.2304,2.95313 -1.1953,1.08984 -3.6914,1.08984 z"
           id="path5767"
           style="fill:#000000;fill-opacity:1" /><path
           d="m 1118.9729,132.15527 h -23.5195 v 12.65625 h 21.6562 q 2.3906,0 3.5508,1.08985 1.1953,1.05468 1.1953,2.8125 0,1.75781 -1.1601,2.88281 -1.1602,1.08984 -3.586,1.08984 h -21.6562 v 14.66016 h 24.3281 q 2.4609,0 3.6914,1.16016 1.2656,1.125 1.2656,3.02343 0,1.82813 -1.2656,2.98828 -1.2305,1.125 -3.6914,1.125 h -28.3711 q -3.4102,0 -4.9219,-1.51171 -1.4765,-1.51172 -1.4765,-4.88672 v -38.74219 q 0,-2.25 0.6679,-3.65625 0.668,-1.44141 2.0743,-2.07422 1.4414,-0.66797 3.6562,-0.66797 h 27.5625 q 2.4961,0 3.6914,1.125 1.2305,1.08985 1.2305,2.88281 0,1.82813 -1.2305,2.95313 -1.1953,1.08984 -3.6914,1.08984 z"
           id="path5769"
           style="fill:#000000;fill-opacity:1" /><path
           d="m 1147.0627,153.60059 h -3.6562 v 16.55859 q 0,3.26953 -1.4414,4.81641 -1.4414,1.54687 -3.7617,1.54687 -2.4961,0 -3.8672,-1.61719 -1.3711,-1.61718 -1.3711,-4.74609 v -39.65625 q 0,-3.375 1.5117,-4.88672 1.5117,-1.51172 4.8867,-1.51172 h 16.9805 q 3.5156,0 6.0117,0.31641 2.4961,0.28125 4.5,1.19531 2.4258,1.01953 4.2891,2.91797 1.8633,1.89844 2.8125,4.42969 0.9844,2.49609 0.9844,5.30859 0,5.76563 -3.2696,9.21094 -3.2344,3.44531 -9.8437,4.88672 2.7773,1.47656 5.3086,4.35937 2.5312,2.88281 4.5,6.15235 2.0039,3.23437 3.0937,5.87109 1.125,2.60156 1.125,3.58594 0,1.01953 -0.668,2.03906 -0.6328,0.98437 -1.7578,1.54687 -1.125,0.59766 -2.6015,0.59766 -1.7578,0 -2.9532,-0.84375 -1.1953,-0.80859 -2.0742,-2.07422 -0.8437,-1.26562 -2.3203,-3.72656 l -4.1836,-6.96094 q -2.25,-3.83203 -4.0429,-5.83594 -1.7579,-2.0039 -3.586,-2.74218 -1.8281,-0.73828 -4.6055,-0.73828 z m 5.9766,-21.65625 h -9.6328 v 14.16796 h 9.3516 q 3.7617,0 6.3281,-0.63281 2.5664,-0.66797 3.9023,-2.21484 1.3711,-1.58203 1.3711,-4.32422 0,-2.14453 -1.0898,-3.76172 -1.0899,-1.65234 -3.0235,-2.46094 -1.8281,-0.77343 -7.207,-0.77343 z"
           id="path5771"
           style="fill:#000000;fill-opacity:1" /></g></g></g></svg>
